# xmcd
#
# Track frame offsets:
#	182
#	13300
#	27000
#	39685
#	49227
#	61815
#	75247
#	89877
#	101612
#	115730
#	129777
#	142567
#	153692
#	165050
#
# Disc length: 2363 seconds
#
# Revision: 0
# Processed by: cddbd v1.5.2PL0 Copyright (c) Steve Scherf et al.
# Submitted via: EZCDAudioConverter 2.2.0.1
#
DISCID=a209390e
DTITLE=trio nordestino - grandes sucessos vol 2
DYEAR=1994
DGENRE=forró
TTITLE0=chinelo de rosinha
TTITLE1=forró quentâo
TTITLE2=montanha russa
TTITLE3=chililique
TTITLE4=arte colinaria
TTITLE5=o trem pega
TTITLE6=no balanço
TTITLE7=homem de saia
TTITLE8=ela beliscando ele
TTITLE9=forró no claro
TTITLE10=conversa de motorista
TTITLE11=forró do bole bole
TTITLE12=chupando o gelo
TTITLE13=por causa da pepita
EXTD=
EXTT0=
EXTT1=
EXTT2=
EXTT3=
EXTT4=
EXTT5=
EXTT6=
EXTT7=
EXTT8=
EXTT9=
EXTT10=
EXTT11=
EXTT12=
EXTT13=
PLAYORDER=
